# xmcd CD database file
#
# Track frame offsets:
#	150
#	7567
#	31249
#	41097
#	66707
#	78315
#	90881
#	109775
#	118697
#	131174
#	148879
#	157800
#	170518
#	205947
#	232723
#	241422
#	260467
#	271700
#	281466
#	291603
#
# Disc length: 3921 seconds
#
# Revision: 0
# Processed by: cddbd v1.5.1PL0 Copyright (c) Steve Scherf et al.
# Submitted via: CDex 1.50
#
DISCID=130f4f14
DTITLE=Schabuwan - Long Time Gone
DYEAR=2002
DGENRE=Country
TTITLE0=I'm So Lonesome I Could Cry
TTITLE1=Long Time Gone
TTITLE2=Home Motel
TTITLE3=The Master Song
TTITLE4=One Of Us Cannot Be Wrong
TTITLE5=Another Day In Paradise
TTITLE6=My Back Pages
TTITLE7=Guess Things Happen That Way
TTITLE8=Lady In Black
TTITLE9=Love Minus Zero - No Limit
TTITLE10=Forgiving You Is Easy
TTITLE11=Jambalaya
TTITLE12=Shelter From The Storm
TTITLE13=Gates Of Eden
TTITLE14=I'm So Lonesome I Could Cry (II)
TTITLE15=Blackjack Davey
TTITLE16=Can't Help Falling In Love
TTITLE17=One Too Many Mornings
TTITLE18=Boat On The River
TTITLE19=I'm So Lonesome I Could Cry (III)
EXTD=YEAR: 2002
EXTT0=
EXTT1=
EXTT2=
EXTT3=
EXTT4=
EXTT5=
EXTT6=
EXTT7=
EXTT8=
EXTT9=
EXTT10=
EXTT11=
EXTT12=
EXTT13=
EXTT14=
EXTT15=
EXTT16=
EXTT17=
EXTT18=
EXTT19=
PLAYORDER=
